<?xml version="1.0" encoding="UTF-8"?>
<svg width="77px" height="77px" viewBox="0 0 77 77" version="1.1" xmlns="http://www.w3.org/2000/svg" xmlns:xlink="http://www.w3.org/1999/xlink">
    <!-- Generator: Sketch 58 (84663) - https://sketch.com -->
    <title>Group 6</title>
    <desc>Created with Sketch.</desc>
    <g id="Page-1" stroke="none" stroke-width="1" fill="none" fill-rule="evenodd">
        <g id="SEO---desktop" transform="translate(-245.000000, -1193.000000)">
            <g id="Group-6" transform="translate(246.000000, 1194.000000)">
                <g id="Group-2" fill="#000000" stroke="#FFFFFF" stroke-width="2">
                    <g id="Group-3">
                        <circle id="Oval" cx="37.5" cy="37.5" r="37.5"></circle>
                    </g>
                </g>
                <g id="noun_Letter_1929363" transform="translate(15.000000, 23.000000)" stroke="#000000" stroke-width="0.2">
                    <g id="Group">
                        <path d="M22.5015,23.035 C22.269,23.035 22.037,22.951 21.8535,22.7825 L14.2475,15.7915 L2.5305,26.559 C2.7245,26.6795 2.9505,26.7465 3.187,26.7465 L41.814,26.7465 C42.0505,26.7465 42.276,26.6795 42.4705,26.559 L30.7545,15.791 L23.1495,22.7825 C22.966,22.9505 22.734,23.035 22.5015,23.035 Z" id="Path"></path>
                        <polygon id="Path" points="1.915 4.456 1.915 24.524 12.8325 14.491"></polygon>
                        <polygon id="Path" points="32.1695 14.4905 43.085 24.523 43.085 4.4565"></polygon>
                        <path d="M2.872,2.2795 C2.8495,2.285 2.828,2.293 2.8065,2.3 C2.7145,2.3295 2.6255,2.3665 2.5435,2.4165 C2.54,2.4185 2.536,2.4205 2.5325,2.4225 L22.5015,20.777 L42.4685,2.4225 C42.464,2.42 42.459,2.4175 42.4545,2.415 C42.3735,2.3665 42.286,2.33 42.196,2.3005 C42.1735,2.2935 42.1515,2.2855 42.1285,2.2795 C42.027,2.253 41.922,2.2355 41.814,2.2355 L3.187,2.2355 C3.079,2.2355 2.974,2.253 2.872,2.2795 Z" id="Path"></path>
                        <path d="M43.503,0.8095 C43.4825,0.7965 43.462,0.7845 43.4415,0.772 C43.3405,0.7115 43.236,0.656 43.1285,0.607 C43.113,0.6 43.098,0.5915 43.0825,0.585 C42.963,0.533 42.84,0.489 42.7135,0.4515 C42.685,0.443 42.6555,0.437 42.6265,0.429 C42.5265,0.4025 42.4255,0.381 42.322,0.3645 C42.286,0.3585 42.25,0.3525 42.2135,0.348 C42.0825,0.3315 41.9495,0.32 41.814,0.32 L3.187,0.32 C3.0515,0.32 2.9185,0.3315 2.7875,0.348 C2.751,0.3525 2.7155,0.3585 2.6795,0.3645 C2.5755,0.381 2.4735,0.403 2.3735,0.4295 C2.345,0.437 2.3165,0.443 2.2885,0.4515 C2.1615,0.489 2.0375,0.5335 1.9175,0.5855 C1.9035,0.5915 1.8905,0.599 1.877,0.605 C1.7665,0.655 1.66,0.712 1.5565,0.774 C1.538,0.785 1.5195,0.796 1.501,0.8075 C0.6015,1.3715 0,2.3685 0,3.5055 L0,25.494 C0,27.2505 1.4295,28.6795 3.187,28.6795 L41.814,28.6795 C43.571,28.6795 45,27.2505 45,25.494 L45,3.5055 C45,2.37 44.4005,1.3735 43.503,0.8095 Z M1.915,4.456 L12.833,14.491 L1.915,24.524 L1.915,4.456 Z M30.7545,15.791 L42.47,26.5585 C42.276,26.679 42.05,26.746 41.8135,26.746 L3.187,26.746 C2.9505,26.746 2.725,26.679 2.5305,26.5585 L14.2475,15.791 L21.8535,22.782 C22.037,22.9505 22.269,23.0345 22.5015,23.0345 C22.734,23.0345 22.966,22.9505 23.1495,22.782 L30.7545,15.791 Z M32.1695,14.4905 L43.085,4.4565 L43.085,24.523 L32.1695,14.4905 Z M41.814,2.2355 C41.922,2.2355 42.027,2.253 42.1285,2.2795 C42.1515,2.2855 42.1735,2.2935 42.196,2.3005 C42.286,2.3295 42.3735,2.3665 42.4545,2.415 C42.459,2.4175 42.464,2.42 42.4685,2.4225 L22.5015,20.777 L2.5325,2.422 C2.536,2.42 2.54,2.418 2.5435,2.416 C2.6255,2.3665 2.715,2.3295 2.8065,2.2995 C2.8285,2.2925 2.85,2.285 2.872,2.279 C2.9735,2.2525 3.079,2.235 3.187,2.235 L41.814,2.235 L41.814,2.2355 Z" id="Shape" fill="#FFFFFF" fill-rule="nonzero"></path>
                    </g>
                </g>
            </g>
        </g>
    </g>
</svg>