<?xml version="1.0" encoding="UTF-8"?>
<svg width="77px" height="77px" viewBox="0 0 77 77" version="1.1" xmlns="http://www.w3.org/2000/svg" xmlns:xlink="http://www.w3.org/1999/xlink">
    <!-- Generator: Sketch 58 (84663) - https://sketch.com -->
    <title>Group 5</title>
    <desc>Created with Sketch.</desc>
    <g id="Page-1" stroke="none" stroke-width="1" fill="none" fill-rule="evenodd">
        <g id="SEO---desktop" transform="translate(-245.000000, -1561.000000)">
            <g id="Group-5" transform="translate(246.000000, 1562.000000)">
                <g id="Group-3" fill="#000000" stroke="#FFFFFF" stroke-width="2">
                    <circle id="Oval" cx="37.5" cy="37.5" r="37.5"></circle>
                </g>
                <g id="favourite" transform="translate(16.882353, 21.176471)" fill="#FFFFFF" fill-rule="nonzero">
                    <path d="M31.2716158,0.0148771407 C27.8233358,0.0148771407 24.4170067,1.59891288 22.1600596,4.24851824 L21.1764706,5.40366344 L20.1928816,4.25043931 C17.9340581,1.59895756 14.5315264,0.0148771407 11.0851675,0.0148771407 C4.88819062,0.0148771407 0.0388682055,4.8661653 0.0388682055,11.0612211 C0.0388682055,18.9432911 7.46153388,25.691169 18.6946687,35.9006404 L21.1727178,38.1385108 L23.5630678,35.9654654 C34.8571854,25.7254803 42.3141623,18.9547282 42.3141623,11.0612211 C42.3141623,4.86612063 37.466761,0.0148771407 31.2716605,0.0148771407 L31.2716158,0.0148771407 Z M11.0851675,1.91727476 C14.6687714,1.91727476 18.3000447,4.09224125 19.9203127,7.2069248 L19.9260313,7.21072226 L22.4479077,7.21072226 L22.4517051,7.2069248 C24.0528965,4.09224125 27.6803723,1.91727476 31.2716158,1.91727476 C36.4792852,1.91727476 40.4117647,5.84783321 40.4117647,11.0612211 C40.4117647,18.1350558 33.200685,24.6656292 22.2763515,34.5567833 L21.1764706,35.6471035 L20.038481,34.5167535 C9.14086374,24.652271 1.94309754,18.1350558 1.94309754,11.0612211 C1.94309754,5.84783321 5.87553239,1.91727476 11.0851229,1.91727476 L11.0851675,1.91727476 Z" id="Shape"></path>
                </g>
            </g>
        </g>
    </g>
</svg>