<?xml version="1.0" encoding="UTF-8"?>
<svg width="77px" height="77px" viewBox="0 0 77 77" version="1.1" xmlns="http://www.w3.org/2000/svg" xmlns:xlink="http://www.w3.org/1999/xlink">
    <!-- Generator: Sketch 58 (84663) - https://sketch.com -->
    <title>Group 3</title>
    <desc>Created with Sketch.</desc>
    <g id="Page-1" stroke="none" stroke-width="1" fill="none" fill-rule="evenodd">
        <g id="SEO---desktop" transform="translate(-245.000000, -1053.000000)">
            <g id="Group-3" transform="translate(246.000000, 1054.000000)">
                <circle id="Oval" stroke="#FFFFFF" stroke-width="2" fill="#000000" cx="37.5" cy="37.5" r="37.5"></circle>
                <g id="my-account" transform="translate(21.093750, 16.406250)" fill="#FFFFFF" fill-rule="nonzero">
                    <path d="M16.4657648,15.7198337 C20.7930214,15.7198337 24.3176709,12.197253 24.3176709,7.86585869 C24.3176709,3.538602 20.7991798,0.0160213526 16.4657648,0.0160213526 C12.1364392,0.0160213526 8.61592742,3.538602 8.61592742,7.86792751 C8.61592742,12.1993218 12.1385081,15.7198337 16.4657648,15.7198337 L16.4657648,15.7198337 Z M16.4657648,2.06473378 C19.666042,2.06473378 22.2690066,4.66971912 22.2690066,7.86797562 C22.2690066,11.0703217 19.6619524,13.6732382 16.4657648,13.6732382 C13.2675082,13.6732382 10.6605022,11.0682528 10.6605022,7.86797562 C10.662571,4.66971912 13.2675564,2.06473378 16.4657648,2.06473378 Z" id="Shape"></path>
                    <path d="M24.8041812,21.6113613 C22.1581562,19.4600257 19.3334907,18.3679756 16.4041812,18.3679756 C13.5220697,18.3679756 10.7302648,19.4251443 8.11710044,21.5087381 C2.81682322,25.7210548 0.0167911474,32.1319052 0.0167911474,40.0474638 C0.0188599707,40.6099432 0.476599157,41.07182 1.04316807,41.07182 L31.767215,41.07182 C32.3276255,41.07182 32.7895024,40.6140327 32.7935919,40.0536222 C32.8449276,32.1565387 30.1537253,25.9509829 24.8041331,21.6114095 L24.8041812,21.6113613 Z M2.08190982,39.0230595 C2.30154188,32.142105 4.75670592,26.7925609 9.3918805,23.109863 C13.9203423,19.5031342 19.0071458,19.533926 23.510926,23.1981488 C28.1256048,26.9444992 30.5540185,32.2653203 30.7346797,39.0230595 L2.08190982,39.0230595 Z" id="Shape"></path>
                </g>
            </g>
        </g>
    </g>
</svg>