<?xml version="1.0" encoding="UTF-8"?>
<svg width="77px" height="77px" viewBox="0 0 77 77" version="1.1" xmlns="http://www.w3.org/2000/svg" xmlns:xlink="http://www.w3.org/1999/xlink">
    <!-- Generator: Sketch 58 (84663) - https://sketch.com -->
    <title>Group 4</title>
    <desc>Created with Sketch.</desc>
    <g id="Page-1" stroke="none" stroke-width="1" fill="none" fill-rule="evenodd">
        <g id="SEO---desktop" transform="translate(-245.000000, -1376.000000)" stroke="#FFFFFF">
            <g id="Group-4" transform="translate(246.000000, 1377.000000)">
                <g id="Group-3" fill="#000000" stroke-width="2">
                    <circle id="Oval" cx="37.5" cy="37.5" r="37.5"></circle>
                </g>
                <g id="noun_Cell-Phone_1953292" transform="translate(23.823529, 15.000000)" fill="#FFFFFF" fill-rule="nonzero" stroke-width="0.4">
                    <g id="Group">
                        <path d="M23.8511029,44.1176471 L3.72242647,44.1176471 C1.65441176,44.1176471 8.27782287e-13,42.4632353 8.27782287e-13,40.3952206 L8.27782287e-13,3.72242647 C8.27782287e-13,1.65441176 1.65441176,0 3.72242647,0 L23.7821691,0 C25.8501838,0 27.5045956,1.65441176 27.5045956,3.72242647 L27.5045956,40.3262868 C27.5735294,42.4632353 25.9191176,44.1176471 23.8511029,44.1176471 Z M3.72242647,1.37867647 C2.41268382,1.37867647 1.37867647,2.41268382 1.37867647,3.72242647 L1.37867647,40.3262868 C1.37867647,41.6360294 2.41268382,42.6700368 3.72242647,42.6700368 L23.7821691,42.6700368 C25.0919118,42.6700368 26.1259191,41.6360294 26.1259191,40.3262868 L26.1259191,3.72242647 C26.1948529,2.41268382 25.1608456,1.37867647 23.8511029,1.37867647 L3.72242647,1.37867647 Z" id="Shape"></path>
                        <path d="M26.6691176,6.89338235 L0.683823529,6.89338235 C0.273529412,6.89338235 0,6.61764706 0,6.20404412 C0,5.79044118 0.273529412,5.51470588 0.683823529,5.51470588 L26.6691176,5.51470588 C27.0794118,5.51470588 27.3529412,5.79044118 27.3529412,6.20404412 C27.3529412,6.61764706 27.0794118,6.89338235 26.6691176,6.89338235 Z" id="Path"></path>
                        <path d="M26.6691176,35.8455882 L0.683823529,35.8455882 C0.273529412,35.8455882 0,35.5698529 0,35.15625 C0,34.7426471 0.273529412,34.4669118 0.683823529,34.4669118 L26.6691176,34.4669118 C27.0794118,34.4669118 27.3529412,34.7426471 27.3529412,35.15625 C27.3529412,35.5698529 27.0794118,35.8455882 26.6691176,35.8455882 Z" id="Path"></path>
                        <path d="M13.7867647,41.3602941 C12.6148897,41.3602941 11.71875,40.4641544 11.71875,39.2922794 C11.71875,38.1204044 12.6148897,37.2242647 13.7867647,37.2242647 C14.9586397,37.2242647 15.8547794,38.1204044 15.8547794,39.2922794 C15.8547794,40.4641544 14.9586397,41.3602941 13.7867647,41.3602941 Z M13.7867647,38.6029412 C13.3731618,38.6029412 13.0974265,38.8786765 13.0974265,39.2922794 C13.0974265,39.7058824 13.3731618,39.9816176 13.7867647,39.9816176 C14.2003676,39.9816176 14.4761029,39.7058824 14.4761029,39.2922794 C14.4761029,38.8786765 14.2003676,38.6029412 13.7867647,38.6029412 Z" id="Shape"></path>
                        <path d="M16.5441176,4.13602941 L11.0294118,4.13602941 C10.6158088,4.13602941 10.3400735,3.86029412 10.3400735,3.44669118 C10.3400735,3.03308824 10.6158088,2.75735294 11.0294118,2.75735294 L16.5441176,2.75735294 C16.9577206,2.75735294 17.2334559,3.03308824 17.2334559,3.44669118 C17.2334559,3.86029412 16.9577206,4.13602941 16.5441176,4.13602941 Z" id="Path"></path>
                    </g>
                </g>
            </g>
        </g>
    </g>
</svg>